<svg width="77" height="18" viewBox="0 0 77 18" fill="none" xmlns="http://www.w3.org/2000/svg">
<path d="M-0.000180047 10.6018H17.0998V12.9958H-0.000180047V10.6018ZM0.77382 0.809803H16.3438V3.2038H0.77382V0.809803ZM3.86982 7.3798H13.4458V9.5758H3.86982V7.3798ZM12.4918 4.0678H15.1018V14.2918C15.1018 14.9158 15.0238 15.4078 14.8678 15.7678C14.7118 16.1278 14.4238 16.4098 14.0038 16.6138C13.5958 16.8058 13.1098 16.9258 12.5458 16.9738C11.9818 17.0218 11.3218 17.0458 10.5658 17.0458C10.5058 16.6978 10.3858 16.2778 10.2058 15.7858C10.0258 15.3058 9.84582 14.9098 9.66582 14.5978C9.96582 14.6098 10.2778 14.6218 10.6018 14.6338C10.9258 14.6338 11.2198 14.6338 11.4838 14.6338C11.7598 14.6338 11.9458 14.6338 12.0418 14.6338C12.2098 14.6338 12.3238 14.6098 12.3838 14.5618C12.4558 14.5018 12.4918 14.3998 12.4918 14.2558V4.0678ZM2.01582 4.0678H13.5178V6.4078H4.60782V17.0278H2.01582V4.0678ZM7.16382 1.5298H9.79182V11.4118H7.16382V1.5298ZM19.9258 1.2238H26.1718V3.6358H19.9258V1.2238ZM20.0698 6.3718H26.0818V8.7658H20.0698V6.3718ZM19.5478 12.5098C20.1358 12.4018 20.8018 12.2758 21.5458 12.1318C22.3018 11.9758 23.0938 11.8078 23.9218 11.6278C24.7618 11.4358 25.5958 11.2498 26.4238 11.0698L26.6938 13.3198C25.5538 13.6198 24.4018 13.9198 23.2378 14.2198C22.0738 14.5078 21.0118 14.7718 20.0518 15.0118L19.5478 12.5098ZM27.0898 1.2058H35.8558V3.6898H27.0898V1.2058ZM26.4058 6.1918H36.7918V8.6938H26.4058V6.1918ZM28.2418 8.0098H30.7618C30.7258 9.1378 30.6418 10.1698 30.5098 11.1058C30.3898 12.0298 30.1618 12.8638 29.8258 13.6078C29.4898 14.3518 28.9858 15.0058 28.3138 15.5698C27.6538 16.1338 26.7658 16.6138 25.6498 17.0098C25.5658 16.8058 25.4398 16.5718 25.2718 16.3078C25.1158 16.0558 24.9418 15.8098 24.7498 15.5698C24.5698 15.3298 24.3898 15.1318 24.2098 14.9758C25.1578 14.6638 25.8958 14.2978 26.4238 13.8778C26.9638 13.4578 27.3538 12.9658 27.5938 12.4018C27.8458 11.8378 28.0078 11.1958 28.0798 10.4758C28.1638 9.7438 28.2178 8.9218 28.2418 8.0098ZM31.5178 7.9558H34.1098V13.7878C34.1098 14.1118 34.1218 14.3158 34.1458 14.3998C34.1698 14.4718 34.2238 14.5078 34.3078 14.5078C34.3318 14.5078 34.3618 14.5078 34.3978 14.5078C34.4338 14.5078 34.4698 14.5078 34.5058 14.5078C34.5538 14.5078 34.5838 14.5078 34.5958 14.5078C34.6798 14.5078 34.7398 14.4538 34.7758 14.3458C34.8238 14.2258 34.8598 13.9858 34.8838 13.6258C34.9078 13.2658 34.9258 12.7318 34.9378 12.0238C35.1058 12.1678 35.3278 12.3118 35.6038 12.4558C35.8798 12.5998 36.1618 12.7258 36.4498 12.8338C36.7498 12.9418 37.0138 13.0258 37.2418 13.0858C37.1698 14.0698 37.0438 14.8438 36.8638 15.4078C36.6958 15.9718 36.4498 16.3678 36.1258 16.5958C35.8018 16.8238 35.3878 16.9378 34.8838 16.9378C34.7998 16.9378 34.7098 16.9378 34.6138 16.9378C34.5298 16.9378 34.4398 16.9378 34.3438 16.9378C34.2478 16.9378 34.1578 16.9378 34.0738 16.9378C33.9898 16.9378 33.9058 16.9378 33.8218 16.9378C33.1978 16.9378 32.7178 16.8358 32.3818 16.6318C32.0458 16.4398 31.8178 16.1098 31.6978 15.6418C31.5778 15.1858 31.5178 14.5738 31.5178 13.8058V7.9558ZM21.9418 2.1778H24.4618V12.7438L21.9418 13.1038V2.1778ZM39.7798 6.8578H56.5558V9.7198H39.7798V6.8578ZM66.4018 -0.000195742L69.1198 0.485804C68.8918 1.5658 68.6038 2.6158 68.2558 3.6358C67.9198 4.6438 67.5358 5.5798 67.1038 6.4438C66.6718 7.2958 66.2098 8.0398 65.7178 8.6758C65.5378 8.5318 65.2918 8.3698 64.9798 8.1898C64.6798 8.0098 64.3678 7.8358 64.0438 7.6678C63.7318 7.4998 63.4618 7.3678 63.2338 7.2718C63.7498 6.7318 64.2118 6.0778 64.6198 5.3098C65.0398 4.5418 65.3998 3.7018 65.6998 2.7898C65.9998 1.8778 66.2338 0.947804 66.4018 -0.000195742ZM69.9298 5.4178H71.2978V7.1458C71.2978 7.5778 71.3518 8.0578 71.4598 8.5858C71.5678 9.1018 71.7418 9.6358 71.9818 10.1878C72.2338 10.7398 72.5638 11.2858 72.9718 11.8258C73.3798 12.3658 73.8898 12.8758 74.5018 13.3558C75.1138 13.8238 75.8398 14.2438 76.6798 14.6158C76.5118 14.8198 76.3198 15.0658 76.1038 15.3538C75.8998 15.6538 75.6958 15.9478 75.4918 16.2358C75.2998 16.5238 75.1318 16.7818 74.9878 17.0098C74.3998 16.7458 73.8598 16.4278 73.3678 16.0558C72.8878 15.6838 72.4498 15.2818 72.0538 14.8498C71.6578 14.4178 71.3098 13.9858 71.0098 13.5538C70.7218 13.1098 70.4818 12.6898 70.2898 12.2938C70.1098 11.8858 69.9838 11.5258 69.9118 11.2138C69.8158 11.5258 69.6598 11.8798 69.4438 12.2758C69.2278 12.6718 68.9578 13.0858 68.6338 13.5178C68.3098 13.9498 67.9258 14.3818 67.4818 14.8138C67.0378 15.2338 66.5398 15.6298 65.9878 16.0018C65.4478 16.3858 64.8538 16.7218 64.2058 17.0098C64.1098 16.8058 63.9598 16.5598 63.7558 16.2718C63.5638 15.9838 63.3658 15.7018 63.1618 15.4258C62.9578 15.1618 62.7778 14.9518 62.6218 14.7958C63.5338 14.4358 64.3198 14.0158 64.9798 13.5358C65.6398 13.0438 66.1978 12.5218 66.6538 11.9698C67.1098 11.4178 67.4698 10.8598 67.7338 10.2958C68.0098 9.7198 68.2078 9.1678 68.3278 8.6398C68.4478 8.0998 68.5078 7.6078 68.5078 7.1638V5.4178H69.9298ZM59.3458 12.2398C59.6818 11.9158 60.0718 11.5258 60.5158 11.0698C60.9598 10.6018 61.4278 10.1038 61.9198 9.5758C62.4238 9.0358 62.9218 8.4898 63.4138 7.9378L64.9078 10.1878C64.3198 10.9198 63.6778 11.6638 62.9818 12.4198C62.2978 13.1758 61.6438 13.8718 61.0198 14.5078L59.3458 12.2398ZM59.8318 2.9158L61.6858 0.971804C62.0338 1.1998 62.4118 1.4578 62.8198 1.7458C63.2278 2.0338 63.6118 2.3278 63.9718 2.6278C64.3438 2.9278 64.6438 3.2098 64.8718 3.4738L62.8918 5.6338C62.6998 5.3698 62.4298 5.0758 62.0818 4.7518C61.7338 4.4278 61.3618 4.1038 60.9658 3.7798C60.5698 3.4558 60.1918 3.1678 59.8318 2.9158ZM67.5898 2.9518H74.5738V5.5618H66.2758L67.5898 2.9518ZM73.7098 2.9518H74.0878L74.5918 2.8078L76.5358 3.9598C76.3558 4.5838 76.1458 5.2018 75.9058 5.8138C75.6658 6.4138 75.4138 6.9898 75.1498 7.5418C74.8978 8.0818 74.6458 8.5738 74.3938 9.0178C74.2138 8.9218 73.9858 8.8078 73.7098 8.6758C73.4458 8.5318 73.1758 8.3938 72.8998 8.2618C72.6238 8.1298 72.3838 8.0278 72.1798 7.9558C72.3718 7.5838 72.5698 7.1458 72.7738 6.6418C72.9778 6.1258 73.1638 5.5978 73.3318 5.0578C73.4998 4.5058 73.6258 3.9898 73.7098 3.5098V2.9518Z" fill="white"/>
</svg>
